<svg width="28" height="28" viewBox="0 0 28 28" fill="none" xmlns="http://www.w3.org/2000/svg">
<path d="M12.5342 19.0332C13.9316 19.0332 15.2412 18.6113 16.3311 17.8906L20.1807 21.749C20.4355 21.9951 20.7607 22.1182 21.1123 22.1182C21.8418 22.1182 22.3779 21.5469 22.3779 20.8262C22.3779 20.4922 22.2637 20.167 22.0176 19.9209L18.1943 16.0801C18.9854 14.9551 19.4512 13.5928 19.4512 12.1162C19.4512 8.31055 16.3398 5.19922 12.5342 5.19922C8.7373 5.19922 5.61719 8.31055 5.61719 12.1162C5.61719 15.9219 8.72852 19.0332 12.5342 19.0332ZM12.5342 17.1875C9.74805 17.1875 7.46289 14.9023 7.46289 12.1162C7.46289 9.33008 9.74805 7.04492 12.5342 7.04492C15.3203 7.04492 17.6055 9.33008 17.6055 12.1162C17.6055 14.9023 15.3203 17.1875 12.5342 17.1875Z" fill="#3D3E40"/>
</svg>
